# xmcd
#
# Track frame offsets:
#	150
#	25132
#	46060
#	62410
#	79212
#	98585
#	113740
#	141580
#	169800
#	187420
#	208475
#	232405
#	257542
#	278285
#	301380
#	321927
#
# Disc length: 4627 seconds
#
# Revision: 5
# Processed by: cddbd v1.5PL3 Copyright (c) Steve Scherf et al.
# Submitted via: audiograbber 1.83.01
#
DISCID=e7121110
DTITLE=Various Artist - Beachlife [CD 2)
DYEAR=1900
DGENRE=
TTITLE0=Morcheeba - The Sea
TTITLE1=George Benson - Song For My Brother
TTITLE2=Moby - Why Does My Heart Feel So Bad?
TTITLE3=Groove Armada - I See You Baby
TTITLE4=Freakpower - Turn On, Tune In, Cop Out
TTITLE5=Extortion - How Do You See Me Now?
TTITLE6=Frankie Knuckles - Tears
TTITLE7=Richie Rich - Salsa House
TTITLE8=Leftfield - Not Forgotten
TTITLE9=Everything But The Girl - Wrong
TTITLE10=Kim English - Nite Life
TTITLE11=Crustation - Flame
TTITLE12=Future Sound Of London - Papua New Guinea
TTITLE13=Adam F - Circles
TTITLE14=Underworld - King Of Snake
TTITLE15=Paul Van Dyk - For An Angel
EXTD=
EXTT0=
EXTT1=
EXTT2=
EXTT3=
EXTT4=
EXTT5=
EXTT6=
EXTT7=
EXTT8=
EXTT9=
EXTT10=
EXTT11=
EXTT12=
EXTT13=
EXTT14=
EXTT15=
PLAYORDER=
